<svg width="142" height="110" viewBox="0 0 142 110" fill="none" xmlns="http://www.w3.org/2000/svg">
<path d="M120.395 9.83521C111.33 5.67604 101.61 2.61169 91.4463 0.856601C91.2613 0.822741 91.0763 0.907391 90.981 1.07669C89.7309 3.30018 88.3463 6.20088 87.3765 8.4808C76.4452 6.84422 65.57 6.84422 54.8629 8.4808C53.8931 6.15008 52.4581 3.30018 51.2024 1.07669C51.1071 0.913035 50.9221 0.828384 50.7371 0.856601C40.5794 2.60605 30.859 5.6704 21.7888 9.83521C21.7103 9.86907 21.6431 9.9255 21.5982 9.99887C3.16078 37.5442 -1.89004 64.4123 0.587722 90.9474C0.598933 91.0772 0.671809 91.2014 0.772713 91.2804C12.9373 100.214 24.7206 105.637 36.2854 109.232C36.4704 109.288 36.6666 109.221 36.7843 109.068C39.5199 105.332 41.9584 101.393 44.0494 97.2511C44.1727 97.0084 44.055 96.7206 43.8027 96.6246C39.9347 95.1574 36.2517 93.3684 32.7089 91.3368C32.4286 91.1731 32.4062 90.7725 32.664 90.5806C33.4096 90.0219 34.1552 89.4406 34.8671 88.8537C34.996 88.7465 35.1754 88.7239 35.3268 88.7916C58.602 99.4181 83.8 99.4181 106.801 88.7916C106.952 88.7183 107.131 88.7408 107.266 88.8481C107.978 89.435 108.723 90.0219 109.474 90.5806C109.732 90.7725 109.716 91.1731 109.435 91.3368C105.892 93.4079 102.209 95.1574 98.3358 96.619C98.0835 96.7149 97.9714 97.0084 98.0948 97.2511C100.231 101.388 102.669 105.327 105.354 109.063C105.466 109.221 105.668 109.288 105.853 109.232C117.474 105.637 129.257 100.214 141.422 91.2804C141.528 91.2014 141.596 91.0829 141.607 90.9531C144.572 60.2757 136.64 33.6277 120.58 10.0045C120.54 9.9255 120.473 9.86907 120.395 9.83521ZM47.525 74.7904C40.5177 74.7904 34.7438 68.357 34.7438 60.4563C34.7438 52.5555 40.4056 46.1221 47.525 46.1221C54.7004 46.1221 60.4183 52.612 60.3062 60.4563C60.3062 68.357 54.6443 74.7904 47.525 74.7904ZM94.7817 74.7904C87.7745 74.7904 82.0005 68.357 82.0005 60.4563C82.0005 52.5555 87.6624 46.1221 94.7817 46.1221C101.957 46.1221 107.675 52.612 107.563 60.4563C107.563 68.357 101.957 74.7904 94.7817 74.7904Z" fill="#99AAB5"/>
</svg>
