<svg width="50" height="33" viewBox="0 0 50 33" fill="none" xmlns="http://www.w3.org/2000/svg">
<path d="M25.0013 15.0559L47.4138 1.14618C46.6963 0.748683 45.8813 0.498688 45.0013 0.498688H5.00129C4.12129 0.498688 3.30629 0.748683 2.58879 1.14618L25.0013 15.0559Z" fill="#99AAB5"/>
<path d="M26.3182 20.1216C25.9157 20.3716 25.4582 20.4966 25.0007 20.4966C24.5432 20.4966 24.0857 20.3716 23.6832 20.1216L0.00823247 5.43186C0.00823247 5.45186 0.000732422 5.47436 0.000732422 5.49686V27.9965C0.000732422 30.7539 2.24323 32.9964 5.00073 32.9964H45.0007C47.7582 32.9964 50.0007 30.7539 50.0007 27.9965V5.49686C50.0007 5.47436 49.9932 5.45186 49.9932 5.42936L26.3182 20.1216Z" fill="#99AAB5"/>
</svg>
