<svg width="60" height="46" viewBox="0 0 60 46" fill="none" xmlns="http://www.w3.org/2000/svg">
<path d="M55 0.499176H25C22.2425 0.499176 20 2.73914 20 5.49909V7.99904H25V5.49909H55V10.499H37.5V15.4989H54.9975L54.9925 30.4986H25V27.9987H20V30.4986C20 33.2586 22.2425 35.4985 25 35.4985H40.955L39.145 39.1185C38.72 39.971 37.865 40.4985 36.91 40.4985H21.035L15 34.4636V21.5363L21.035 15.4989H30V17.9989C30 19.3763 28.8775 20.4988 27.5 20.4988H22.5V25.4987H27.5C31.635 25.4987 35 22.1338 35 17.9989V12.9989C35 11.619 33.88 10.499 32.5 10.499H20C19.3375 10.499 18.7 10.759 18.2325 11.234L13.65 15.8139C13.3 15.6314 12.9225 15.4989 12.5 15.4989H2.5C1.12 15.4989 0 16.6189 0 17.9989V37.9985C0 39.381 1.12 40.4985 2.5 40.4985H12.5C12.9225 40.4985 13.3 40.3685 13.65 40.1835L18.2325 44.7684C18.7 45.2334 19.3375 45.4984 20 45.4984H36.91C39.77 45.4984 42.34 43.9109 43.6175 41.3509L46.545 35.4985H55C57.7575 35.4985 60 33.2586 60 30.4986V5.49909C60 2.73914 57.7575 0.499176 55 0.499176ZM10 35.4985H5V20.4988H10V35.4985Z" fill="#99AAB5"/>
</svg>
